<mxfile host="app.diagrams.net" modified="2023-12-27T15:05:26.584Z" agent="Mozilla/5.0 (Windows NT 10.0; Win64; x64) AppleWebKit/537.36 (KHTML, like Gecko) Chrome/120.0.0.0 Safari/537.36" version="22.1.13" etag="0iT0oXn2K3-set05Gklk" type="github">
  <diagram name="第 1 页" id="kaRjQwYyJjDQvEG3-6bK">
    <mxGraphModel>
      <root>
        <mxCell id="0" />
        <mxCell id="1" parent="0" />
      </root>
    </mxGraphModel>
  </diagram>
</mxfile>
